<svg width="42" height="42" viewBox="0 0 42 42" fill="none" xmlns="http://www.w3.org/2000/svg">
<path d="M28.8389 0C26.1648 0 23.8577 1.83521 22.4419 4.61423C24.8015 7.44569 26.2172 11.3258 26.2172 15.7828C26.2172 17.3034 26.0599 18.6667 25.7453 20.03C26.7416 20.6067 27.7378 21.0262 28.8389 21.0262C33.191 21.0262 36.7041 16.3071 36.7041 10.5393C36.7041 4.77153 33.191 0.0524345 28.8389 0.0524345V0ZM13.1086 5.24345C8.75655 5.24345 5.24345 9.96255 5.24345 15.7303C5.24345 21.4981 8.75655 26.2172 13.1086 26.2172C17.4607 26.2172 20.9738 21.4981 20.9738 15.7303C20.9738 9.96255 17.4607 5.24345 13.1086 5.24345ZM38.015 21.8127C35.7603 24.4869 32.6667 26.1124 29.1536 26.2172C30.5693 28.2097 31.4607 30.6217 31.4607 33.2434V36.7041H41.9476V28C41.9476 25.2734 40.3221 22.9139 38.015 21.7603V21.8127ZM3.93258 27.0562C1.62547 28.2097 0 30.5693 0 33.2959V42H26.2172V33.2959C26.2172 30.5693 24.5918 28.2097 22.2846 27.0562C19.9251 29.8352 16.7266 31.4607 13.1086 31.4607C9.49064 31.4607 6.29213 29.7828 3.93258 27.0562Z" fill="#666666"/>
</svg>
