<svg width="41" height="36" viewBox="0 0 41 36" fill="none" xmlns="http://www.w3.org/2000/svg">
<path d="M2.56192 0C1.12724 0 0 1.12724 0 2.56192C0 3.99659 1.12724 5.12384 2.56192 5.12384C3.99659 5.12384 5.12384 3.99659 5.12384 2.56192C5.12384 1.12724 3.99659 0 2.56192 0ZM10.2477 0V5.12384H40.9907V0H10.2477ZM2.56192 10.2477C1.12724 10.2477 0 11.3749 0 12.8096C0 14.2443 1.12724 15.3715 2.56192 15.3715C3.99659 15.3715 5.12384 14.2443 5.12384 12.8096C5.12384 11.3749 3.99659 10.2477 2.56192 10.2477ZM10.2477 10.2477V15.3715H40.9907V10.2477H10.2477ZM2.56192 20.4954C1.12724 20.4954 0 21.6226 0 23.0573C0 24.4919 1.12724 25.6192 2.56192 25.6192C3.99659 25.6192 5.12384 24.4919 5.12384 23.0573C5.12384 21.6226 3.99659 20.4954 2.56192 20.4954ZM10.2477 20.4954V25.6192H40.9907V20.4954H10.2477ZM2.56192 30.743C1.12724 30.743 0 31.8703 0 33.305C0 34.7396 1.12724 35.8669 2.56192 35.8669C3.99659 35.8669 5.12384 34.7396 5.12384 33.305C5.12384 31.8703 3.99659 30.743 2.56192 30.743ZM10.2477 30.743V35.8669H40.9907V30.743H10.2477Z" fill="#666666"/>
</svg>
